<mxfile host="app.diagrams.net" modified="2024-05-21T15:31:13.597Z" agent="Mozilla/5.0 (Windows NT 10.0; Win64; x64) AppleWebKit/537.36 (KHTML, like Gecko) Chrome/125.0.0.0 Safari/537.36" etag="8kZgRxg4RMNjNeG5LHb5" version="24.4.4" type="github">
  <diagram name="Página-1" id="UKmgMxV48B09B0GDzMg-">
    <mxGraphModel dx="2901" dy="746" grid="1" gridSize="10" guides="1" tooltips="1" connect="1" arrows="1" fold="1" page="1" pageScale="1" pageWidth="827" pageHeight="1169" math="0" shadow="0">
      <root>
        <mxCell id="0" />
        <mxCell id="1" parent="0" />
        <mxCell id="Dji31At50qjdqCUaUfNv-1" value="FFCD00" style="group;fillColor=none;fontColor=#FFCD00;" vertex="1" connectable="0" parent="1">
          <mxGeometry y="272" width="1110" height="624.38" as="geometry" />
        </mxCell>
        <mxCell id="Dji31At50qjdqCUaUfNv-2" value="" style="rounded=0;whiteSpace=wrap;html=1;" vertex="1" parent="Dji31At50qjdqCUaUfNv-1">
          <mxGeometry x="930" y="180" width="120" height="60" as="geometry" />
        </mxCell>
        <mxCell id="Dji31At50qjdqCUaUfNv-3" value="" style="rounded=0;whiteSpace=wrap;html=1;rotation=0;fillColor=#f1f2f4;" vertex="1" parent="Dji31At50qjdqCUaUfNv-1">
          <mxGeometry width="1110" height="620" as="geometry" />
        </mxCell>
        <mxCell id="Dji31At50qjdqCUaUfNv-4" value="" style="rounded=0;whiteSpace=wrap;html=1;fillColor=#002244;" vertex="1" parent="Dji31At50qjdqCUaUfNv-1">
          <mxGeometry width="1110" height="110" as="geometry" />
        </mxCell>
        <mxCell id="Dji31At50qjdqCUaUfNv-5" value="Presidente FC" style="text;html=1;align=center;verticalAlign=middle;whiteSpace=wrap;rounded=0;fontColor=#ffcd00;fontSize=48;fontStyle=1" vertex="1" parent="Dji31At50qjdqCUaUfNv-1">
          <mxGeometry x="30" y="40" width="330" height="30" as="geometry" />
        </mxCell>
        <mxCell id="Dji31At50qjdqCUaUfNv-6" value="&lt;font style=&quot;font-size: 17px;&quot;&gt;Everton&lt;/font&gt;" style="text;html=1;align=center;verticalAlign=middle;whiteSpace=wrap;rounded=0;fontColor=#ffcd00;fontSize=48;fontStyle=1" vertex="1" parent="Dji31At50qjdqCUaUfNv-1">
          <mxGeometry x="980" y="40" width="100" height="30" as="geometry" />
        </mxCell>
        <mxCell id="Dji31At50qjdqCUaUfNv-27" value="" style="endArrow=none;html=1;rounded=0;entryX=1.002;entryY=0.281;entryDx=0;entryDy=0;entryPerimeter=0;exitX=-0.001;exitY=0.298;exitDx=0;exitDy=0;exitPerimeter=0;" edge="1" parent="Dji31At50qjdqCUaUfNv-1" source="Dji31At50qjdqCUaUfNv-3" target="Dji31At50qjdqCUaUfNv-3">
          <mxGeometry width="50" height="50" relative="1" as="geometry">
            <mxPoint x="180" y="185" as="sourcePoint" />
            <mxPoint x="559" y="185" as="targetPoint" />
          </mxGeometry>
        </mxCell>
        <mxCell id="Dji31At50qjdqCUaUfNv-50" value="&lt;font data-darkreader-inline-color=&quot;&quot; color=&quot;#002244&quot; style=&quot;--darkreader-inline-color: #d3cfc9; font-size: 22px;&quot;&gt;Perguntas frequentes&lt;/font&gt;" style="text;html=1;align=center;verticalAlign=middle;whiteSpace=wrap;rounded=0;fontColor=#ffcd00;fontSize=48;fontStyle=1" vertex="1" parent="Dji31At50qjdqCUaUfNv-1">
          <mxGeometry x="427" y="130" width="256" height="30" as="geometry" />
        </mxCell>
        <mxCell id="Dji31At50qjdqCUaUfNv-57" value="" style="group" vertex="1" connectable="0" parent="Dji31At50qjdqCUaUfNv-1">
          <mxGeometry y="252.5" width="1110" height="60" as="geometry" />
        </mxCell>
        <mxCell id="Dji31At50qjdqCUaUfNv-56" value="" style="rounded=0;whiteSpace=wrap;html=1;" vertex="1" parent="Dji31At50qjdqCUaUfNv-57">
          <mxGeometry width="1110" height="60" as="geometry" />
        </mxCell>
        <mxCell id="Dji31At50qjdqCUaUfNv-31" value="&lt;font data-darkreader-inline-color=&quot;&quot; color=&quot;#002244&quot; style=&quot;font-size: 15px; --darkreader-inline-color: #d3cfc9;&quot;&gt;1. Como funciona a premiação ?&lt;/font&gt;" style="text;html=1;align=center;verticalAlign=middle;whiteSpace=wrap;rounded=0;fontColor=#ffcd00;fontSize=48;fontStyle=1" vertex="1" parent="Dji31At50qjdqCUaUfNv-57">
          <mxGeometry x="130" y="10" width="270" height="30" as="geometry" />
        </mxCell>
        <mxCell id="Dji31At50qjdqCUaUfNv-64" value="" style="group" vertex="1" connectable="0" parent="Dji31At50qjdqCUaUfNv-1">
          <mxGeometry y="518" width="1110" height="60" as="geometry" />
        </mxCell>
        <mxCell id="Dji31At50qjdqCUaUfNv-65" value="" style="rounded=0;whiteSpace=wrap;html=1;" vertex="1" parent="Dji31At50qjdqCUaUfNv-64">
          <mxGeometry width="1110" height="60" as="geometry" />
        </mxCell>
        <mxCell id="Dji31At50qjdqCUaUfNv-66" value="&lt;font data-darkreader-inline-color=&quot;&quot; color=&quot;#002244&quot; style=&quot;font-size: 15px; --darkreader-inline-color: #d3cfc9;&quot;&gt;4. Que horas o mercado fecha ?&lt;/font&gt;" style="text;html=1;align=center;verticalAlign=middle;whiteSpace=wrap;rounded=0;fontColor=#ffcd00;fontSize=48;fontStyle=1" vertex="1" parent="Dji31At50qjdqCUaUfNv-64">
          <mxGeometry x="110" y="10" width="290" height="30" as="geometry" />
        </mxCell>
        <mxCell id="Dji31At50qjdqCUaUfNv-61" value="" style="group" vertex="1" connectable="0" parent="Dji31At50qjdqCUaUfNv-1">
          <mxGeometry y="428" width="1110" height="60" as="geometry" />
        </mxCell>
        <mxCell id="Dji31At50qjdqCUaUfNv-62" value="" style="rounded=0;whiteSpace=wrap;html=1;" vertex="1" parent="Dji31At50qjdqCUaUfNv-61">
          <mxGeometry width="1110" height="60" as="geometry" />
        </mxCell>
        <mxCell id="Dji31At50qjdqCUaUfNv-63" value="&lt;font data-darkreader-inline-color=&quot;&quot; color=&quot;#002244&quot; style=&quot;font-size: 15px; --darkreader-inline-color: #d3cfc9;&quot;&gt;3. Quais são as formas de pagamento ?&lt;/font&gt;" style="text;html=1;align=center;verticalAlign=middle;whiteSpace=wrap;rounded=0;fontColor=#ffcd00;fontSize=48;fontStyle=1" vertex="1" parent="Dji31At50qjdqCUaUfNv-61">
          <mxGeometry x="140" y="10" width="290" height="30" as="geometry" />
        </mxCell>
        <mxCell id="Dji31At50qjdqCUaUfNv-58" value="" style="group" vertex="1" connectable="0" parent="Dji31At50qjdqCUaUfNv-1">
          <mxGeometry y="338" width="1110" height="60" as="geometry" />
        </mxCell>
        <mxCell id="Dji31At50qjdqCUaUfNv-59" value="" style="rounded=0;whiteSpace=wrap;html=1;" vertex="1" parent="Dji31At50qjdqCUaUfNv-58">
          <mxGeometry width="1110" height="60" as="geometry" />
        </mxCell>
        <mxCell id="Dji31At50qjdqCUaUfNv-60" value="&lt;font data-darkreader-inline-color=&quot;&quot; color=&quot;#002244&quot; style=&quot;font-size: 15px; --darkreader-inline-color: #d3cfc9;&quot;&gt;2. Como escalar meu time ?&lt;/font&gt;" style="text;html=1;align=center;verticalAlign=middle;whiteSpace=wrap;rounded=0;fontColor=#ffcd00;fontSize=48;fontStyle=1" vertex="1" parent="Dji31At50qjdqCUaUfNv-58">
          <mxGeometry x="120" width="250" height="30" as="geometry" />
        </mxCell>
      </root>
    </mxGraphModel>
  </diagram>
</mxfile>
